<svg width="68" height="68" viewBox="0 0 68 68" fill="none" xmlns="http://www.w3.org/2000/svg">
<g clip-path="url(#clip0_87_525)" filter="url(#filter0_d_87_525)">
<path fill-rule="evenodd" clip-rule="evenodd" d="M62.3316 37.137C59.6856 22.359 53.7696 18 50.6226 18C45.7116 18 44.4516 21.651 33.9996 21.774C23.5476 21.651 22.2876 18 17.3766 18C14.2296 18 8.31062 22.359 5.66461 37.137C4.15561 45.573 2.51761 58.167 6.42061 59.679C11.2776 61.56 12.9246 56.856 18.2586 52.881C23.6736 48.852 26.2716 47.904 33.9996 47.904C41.7276 47.904 44.3256 48.852 49.7406 52.881C55.0746 56.853 56.7216 61.56 61.5786 59.679C65.4816 58.167 63.8436 45.576 62.3316 37.137ZM21.9996 39.054C20.4083 39.054 18.8822 38.4219 17.757 37.2966C16.6318 36.1714 15.9996 34.6453 15.9996 33.054C15.9996 31.4627 16.6318 29.9366 17.757 28.8114C18.8822 27.6861 20.4083 27.054 21.9996 27.054C23.5909 27.054 25.117 27.6861 26.2423 28.8114C27.3675 29.9366 27.9996 31.4627 27.9996 33.054C27.9996 34.6453 27.3675 36.1714 26.2423 37.2966C25.117 38.4219 23.5909 39.054 21.9996 39.054ZM42.9996 39.054C42.204 39.054 41.4409 38.7379 40.8783 38.1753C40.3157 37.6127 39.9996 36.8496 39.9996 36.054C39.9996 35.2584 40.3157 34.4953 40.8783 33.9327C41.4409 33.3701 42.204 33.054 42.9996 33.054C43.7953 33.054 44.5583 33.3701 45.1209 33.9327C45.6835 34.4953 45.9996 35.2584 45.9996 36.054C45.9996 36.8496 45.6835 37.6127 45.1209 38.1753C44.5583 38.7379 43.7953 39.054 42.9996 39.054ZM48.9996 33.054C48.204 33.054 47.4409 32.7379 46.8783 32.1753C46.3157 31.6127 45.9996 30.8496 45.9996 30.054C45.9996 29.2583 46.3157 28.4953 46.8783 27.9327C47.4409 27.3701 48.204 27.054 48.9996 27.054C49.7953 27.054 50.5583 27.3701 51.1209 27.9327C51.6835 28.4953 51.9996 29.2583 51.9996 30.054C51.9996 30.8496 51.6835 31.6127 51.1209 32.1753C50.5583 32.7379 49.7953 33.054 48.9996 33.054Z" fill="#0057B0"/>
</g>
<defs>
<filter id="filter0_d_87_525" x="0" y="0" width="68" height="68" filterUnits="userSpaceOnUse" color-interpolation-filters="sRGB">
<feFlood flood-opacity="0" result="BackgroundImageFix"/>
<feColorMatrix in="SourceAlpha" type="matrix" values="0 0 0 0 0 0 0 0 0 0 0 0 0 0 0 0 0 0 127 0" result="hardAlpha"/>
<feOffset dy="4"/>
<feGaussianBlur stdDeviation="2"/>
<feComposite in2="hardAlpha" operator="out"/>
<feColorMatrix type="matrix" values="0 0 0 0 0 0 0 0 0 0 0 0 0 0 0 0 0 0 0.25 0"/>
<feBlend mode="normal" in2="BackgroundImageFix" result="effect1_dropShadow_87_525"/>
<feBlend mode="normal" in="SourceGraphic" in2="effect1_dropShadow_87_525" result="shape"/>
</filter>
<clipPath id="clip0_87_525">
<rect width="60" height="60" fill="white" transform="translate(4)"/>
</clipPath>
</defs>
</svg>
