<svg width="88" height="80" viewBox="0 0 88 80" fill="currentColor" xmlns="http://www.w3.org/2000/svg">
<g filter="url(#filter0_d_191_6)">
<path fill-rule="evenodd" clip-rule="evenodd" d="M81.7758 37.444C78.2478 17.74 70.3598 11.928 66.1638 11.928C59.6158 11.928 57.9358 16.796 43.9998 16.96C30.0638 16.796 28.3838 11.928 21.8358 11.928C17.6398 11.928 9.74779 17.74 6.21979 37.444C4.20779 48.692 2.02379 65.484 7.22779 67.5C13.7038 70.008 15.8998 63.736 23.0118 58.436C30.2318 53.064 33.6958 51.8 43.9998 51.8C54.3038 51.8 57.7678 53.064 64.9878 58.436C72.0998 63.732 74.2958 70.008 80.7718 67.5C85.9758 65.484 83.7918 48.696 81.7758 37.444ZM27.9998 40C25.8781 40 23.8432 39.1571 22.3429 37.6568C20.8426 36.1565 19.9998 34.1217 19.9998 32C19.9998 29.8782 20.8426 27.8434 22.3429 26.3431C23.8432 24.8428 25.8781 24 27.9998 24C30.1215 24 32.1564 24.8428 33.6566 26.3431C35.1569 27.8434 35.9998 29.8782 35.9998 32C35.9998 34.1217 35.1569 36.1565 33.6566 37.6568C32.1564 39.1571 30.1215 40 27.9998 40ZM55.9998 40C54.9389 40 53.9215 39.5785 53.1714 38.8284C52.4212 38.0783 51.9998 37.0608 51.9998 36C51.9998 34.9391 52.4212 33.9217 53.1714 33.1716C53.9215 32.4214 54.9389 32 55.9998 32C57.0607 32 58.0781 32.4214 58.8282 33.1716C59.5784 33.9217 59.9998 34.9391 59.9998 36C59.9998 37.0608 59.5784 38.0783 58.8282 38.8284C58.0781 39.5785 57.0607 40 55.9998 40ZM63.9998 32C62.9389 32 61.9215 31.5785 61.1714 30.8284C60.4212 30.0783 59.9998 29.0608 59.9998 28C59.9998 26.9391 60.4212 25.9217 61.1714 25.1716C61.9215 24.4214 62.9389 24 63.9998 24C65.0607 24 66.0781 24.4214 66.8282 25.1716C67.5784 25.9217 67.9998 26.9391 67.9998 28C67.9998 29.0608 67.5784 30.0783 66.8282 30.8284C66.0781 31.5785 65.0607 32 63.9998 32Z" fill="currentColor"/>
</g>
<defs>
<filter id="filter0_d_191_6" x="0" y="0" width="88" height="88" filterUnits="userSpaceOnUse" color-interpolation-filters="sRGB">
<feFlood flood-opacity="0" result="BackgroundImageFix"/>
<feColorMatrix in="SourceAlpha" type="matrix" values="0 0 0 0 0 0 0 0 0 0 0 0 0 0 0 0 0 0 127 0" result="hardAlpha"/>
<feOffset dy="4"/>
<feGaussianBlur stdDeviation="2"/>
<feComposite in2="hardAlpha" operator="out"/>
<feColorMatrix type="matrix" values="0 0 0 0 0 0 0 0 0 0 0 0 0 0 0 0 0 0 0.25 0"/>
<feBlend mode="normal" in2="BackgroundImageFix" result="effect1_dropShadow_191_6"/>
<feBlend mode="normal" in="SourceGraphic" in2="effect1_dropShadow_191_6" result="shape"/>
</filter>
</defs>
</svg>
